<?xml version="1.0" encoding="UTF-8" standalone="no"?>
<!-- Generator: Adobe Illustrator 27.5.0, SVG Export Plug-In . SVG Version: 6.00 Build 0)  -->

<svg
   version="1.1"
   x="0px"
   y="0px"
   viewBox="0 0 32.941456 131.49831"
   xml:space="preserve"
   id="svg18705"
   sodipodi:docname="copa.svg"
   width="32.941456"
   height="131.49831"
   inkscape:version="1.4.3 (0d15f75, 2025-12-25)"
   xmlns:inkscape="http://www.inkscape.org/namespaces/inkscape"
   xmlns:sodipodi="http://sodipodi.sourceforge.net/DTD/sodipodi-0.dtd"
   xmlns="http://www.w3.org/2000/svg"
   xmlns:svg="http://www.w3.org/2000/svg"><defs
   id="defs18705" /><sodipodi:namedview
   id="namedview18705"
   pagecolor="#ffffff"
   bordercolor="#c2187a"
   borderopacity="0.25"
   inkscape:showpageshadow="2"
   inkscape:pageopacity="0.0"
   inkscape:pagecheckerboard="0"
   inkscape:deskcolor="#d1d1d1"
   inkscape:zoom="3.228"
   inkscape:cx="-119.114"
   inkscape:cy="37.019827"
   inkscape:window-width="1536"
   inkscape:window-height="793"
   inkscape:window-x="-8"
   inkscape:window-y="-8"
   inkscape:window-maximized="1"
   inkscape:current-layer="g18569" />

<g
   id="g18695"
   transform="rotate(-24.521262,-372.48428,712.80931)">
		<g
   id="g18569"
   transform="matrix(1.0376643,-0.08256553,0.01718149,0.96233571,-14.319765,31.390982)">
			<g
   id="g18550">
				<g
   id="g18549">
					<path
   style="fill:#c2187a"
   d="m 262.517,224.14 c -4.604,9.403 -8.884,19.136 -14.221,28.148 -5.662,9.56 -13.298,21.514 -10.672,33.176 2.023,8.985 10.824,15.338 18.887,9.38 8.562,-6.327 13.727,-17.593 18.17,-26.924 4.939,-10.374 9.544,-21.188 13.204,-32.089 0.092,-0.274 0.032,-0.556 -0.23,-0.701 -0.845,-0.466 -2.055,-0.435 -2.99,-0.604 -3.177,-0.575 -6.363,-1.208 -9.372,-2.412 -4.193,-1.679 -8.936,-4.355 -11.625,-8.143 -0.474,-0.668 -1.647,0.234 -1.226,0.827 3.449,4.858 9.776,8.083 15.328,9.663 1.112,0.316 8.247,0.92 8.761,1.813 0.52,0.902 -2.451,6.438 -2.974,7.702 -4.071,9.858 -7.922,19.78 -12.835,29.266 -3.579,6.911 -12.639,26.251 -23.123,22.454 -7.871,-2.851 -9.961,-12.355 -8.651,-19.631 1.281,-7.116 4.768,-13.721 8.393,-19.893 5.993,-10.205 11.049,-20.917 16.252,-31.544 0.428,-0.872 -0.692,-1.274 -1.076,-0.488 z"
   id="path18548" />
				</g>
			</g>
			<g
   id="g18552"
   transform="matrix(0.77610335,0.34317137,-0.22550275,0.62928935,119.07479,3.3203901)">
				<g
   id="g18551">
					<path
   style="fill:#c2187a"
   d="m 243.792,261.982 c 5.919,1.795 11.968,2.438 18.143,2.355 4.998,-0.067 10.445,0.134 15.095,-1.878 0.722,-0.312 0.708,-1.626 -0.191,-1.237 -4.767,2.062 -10.903,1.804 -16.016,1.794 -5.517,-0.011 -10.961,-0.685 -16.247,-2.288 -0.699,-0.212 -1.546,1.023 -0.784,1.254 z"
   id="path18550" />
				</g>
			</g>
			
			
			<g
   id="g18558">
				<g
   id="g18557">
					<path
   style="fill:#c2187a"
   d="m 224.771,336.177 c 6.009,-6.236 8.449,-15.399 11.493,-23.29 1.655,-4.29 3.391,-8.561 4.875,-12.915 1.139,-3.344 1.006,-4.942 0.594,-8.555 -0.099,-0.864 -1.401,-0.194 -1.319,0.527 0.423,3.709 0.261,5.711 -0.969,9.158 -1.394,3.908 -2.931,7.766 -4.424,11.637 -2.955,7.66 -5.258,16.593 -11.08,22.636 -0.65,0.674 0.179,1.479 0.83,0.802 z"
   id="path18556" />
				</g>
			</g>
			<g
   id="g18560">
				<g
   id="g18559">
					<path
   style="fill:#c2187a"
   d="m 251.735,295.99 c -6.921,2.925 -10.098,13.667 -13.183,19.841 -2.072,4.145 -4.142,8.294 -6.128,12.482 -0.497,1.048 -1.082,2.111 -1.468,3.208 -0.98,2.789 -0.255,5.56 -0.836,8.339 -0.19,0.908 1.175,0.52 1.324,-0.196 0.571,-2.731 -0.175,-5.355 0.811,-8.13 0.335,-0.942 0.837,-1.857 1.262,-2.758 1.818,-3.849 3.719,-7.66 5.618,-11.47 1.845,-3.699 3.701,-7.393 5.597,-11.067 1.779,-3.447 3.349,-7.388 7.193,-9.013 0.727,-0.305 0.713,-1.617 -0.19,-1.236 z"
   id="path18558" />
				</g>
			</g>
			<g
   id="g18562">
				<g
   id="g18561">
					<path
   style="fill:#c2187a"
   d="m 226.124,332.899 c -3.579,-1.723 -12.744,-5.042 -15.119,0.473 -2.364,5.491 6.435,9.856 10.202,11.24 5.349,1.965 14.173,7.624 19.06,1.456 3.88,-4.898 -4.957,-10.052 -8.506,-11.674 -0.669,-0.306 -1.526,0.914 -0.784,1.254 4.242,1.938 11.703,6.257 6.186,11.253 -3.375,3.056 -11.759,-2.288 -15.172,-3.542 -2.989,-1.098 -8.274,-3.259 -9.307,-6.644 -2.494,-8.171 10.187,-3.751 12.656,-2.562 0.663,0.319 1.521,-0.899 0.784,-1.254 z"
   id="path18560" />
				</g>
			</g>
			
			
			
		</g>
		
		<g
   id="g18579">
			<g
   id="g18576">
				<g
   id="g18575">
					<path
   style="fill:#c2187a"
   d="m 259.547,250.482 c 1.53,0 1.533,-2.378 0,-2.378 -1.53,0 -1.533,2.378 0,2.378 z"
   id="path18574" />
				</g>
			</g>
			<g
   id="g18578">
				<g
   id="g18577">
					<path
   style="fill:#c2187a"
   d="m 258.83,250.242 c 1.221,0.923 2.657,-0.973 1.434,-1.898 -1.221,-0.923 -2.657,0.973 -1.434,1.898 z"
   id="path18576" />
				</g>
			</g>
		</g>
		
		
		
		
		
		<g
   id="g18659">
			<g
   id="g18658">
				<g
   id="g18657">
					<path
   style="fill:#c2187a"
   d="m 249.208,273.869 c 1.99,2.481 6.458,-0.28 4.423,-2.997 -1.913,-2.555 -6.422,0.117 -4.501,2.896 0.364,0.526 1.231,0.026 0.863,-0.505 -1.229,-1.777 1.671,-3.385 2.847,-1.782 0.561,0.765 0.247,1.646 -0.532,2.111 -0.846,0.506 -1.783,0.331 -2.394,-0.431 -0.402,-0.501 -1.105,0.211 -0.706,0.708 z"
   id="path18656" />
				</g>
			</g>
		</g>
		
		<g
   id="g18665">
			<g
   id="g18664">
				<g
   id="g18663">
					<path
   style="fill:#c2187a"
   d="m 249.824,288.116 c 0.971,1.175 3.107,-0.133 2.126,-1.441 -0.921,-1.228 -3.066,0.045 -2.164,1.392 0.171,0.256 0.588,0.015 0.415,-0.243 -0.575,-0.858 0.801,-1.631 1.366,-0.855 0.274,0.376 0.115,0.796 -0.266,1.02 -0.409,0.24 -0.843,0.143 -1.138,-0.214 -0.197,-0.237 -0.535,0.104 -0.339,0.341 z"
   id="path18662" />
				</g>
			</g>
		</g>
		<g
   id="g18668">
			<g
   id="g18667">
				<g
   id="g18666">
					<path
   style="fill:#c2187a"
   d="m 270.179,249.859 c 0.947,-0.669 1.445,-1.853 0.837,-2.932 -0.586,-1.041 -1.861,-1.195 -2.814,-0.566 -0.964,0.635 -1.436,1.88 -0.837,2.932 0.602,1.059 1.841,1.17 2.814,0.566 0.437,-0.271 0.035,-0.964 -0.404,-0.691 -1.574,0.977 -2.556,-1.171 -1.169,-2.116 0.566,-0.386 1.306,-0.396 1.692,0.234 0.417,0.68 0.082,1.454 -0.523,1.882 -0.417,0.295 -0.018,0.989 0.404,0.691 z"
   id="path18665" />
				</g>
			</g>
		</g>
		
		
		
		<g
   id="g18677">
			<g
   id="g18676"
   transform="matrix(0.8021051,0.28589162,-0.31795123,0.85976676,136.48605,-41.93904)">
				<path
   style="fill:#c2187a"
   d="m 245.117,261.673 c 1.41,-2.456 7.178,-2.448 9.496,-2.661 3.112,-0.286 6.378,-0.631 9.505,-0.586 2.767,0.04 4.585,1.252 7.116,1.794 1.272,0.273 4.955,-0.162 5.427,1.31 0.241,0.752 1.449,-0.131 1.226,-0.827 -0.533,-1.662 -3.456,-1.49 -4.78,-1.693 -3.246,-0.498 -5.48,-2.031 -8.84,-1.914 -4.877,0.17 -9.832,0.415 -14.647,1.23 -2.31,0.391 -4.353,0.72 -5.582,2.86 -0.486,0.848 0.646,1.241 1.079,0.487 z"
   id="path18675" />
			</g>
		</g>
		<g
   id="g18679">
			<g
   id="g18678">
				<path
   style="fill:#c2187a"
   d="m 263.234,224.958 c 4.776,-1.803 9.652,0.383 13.876,2.343 2.647,1.229 10.598,3.927 9.521,8.033 -0.248,0.944 1.04,0.923 1.243,0.148 1.164,-4.437 -5.163,-7.257 -8.237,-8.658 -5.18,-2.362 -10.789,-5.296 -16.595,-3.104 -0.742,0.28 -0.725,1.584 0.192,1.238 z"
   id="path18677" />
			</g>
		</g>
		<g
   id="g18681">
			<g
   id="g18680">
				<path
   style="fill:#c2187a"
   d="m 264.286,225.68 c 3.178,-0.359 6.606,0.731 9.514,1.96 2.151,0.909 4.728,1.397 6.558,2.893 0.298,0.243 0.815,-0.299 0.521,-0.539 -2.054,-1.68 -5.087,-2.387 -7.535,-3.364 -2.744,-1.096 -6.03,-1.948 -8.984,-1.615 -0.37,0.042 -0.541,0.718 -0.074,0.665 z"
   id="path18679" />
			</g>
		</g>
		
		<g
   id="g18685">
			<g
   id="g18684">
				<path
   style="fill:#c2187a"
   d="m 274.712,265.891 c 0.357,0 0.67,-0.668 0.24,-0.668 -0.357,0 -0.669,0.668 -0.24,0.668 z"
   id="path18683" />
			</g>
		</g>
		
		
		
	</g>

</svg>
