<svg xmlns:inkscape="http://www.inkscape.org/namespaces/inkscape" xmlns:sodipodi="http://sodipodi.sourceforge.net/DTD/sodipodi-0.dtd" xmlns="http://www.w3.org/2000/svg" xmlns:svg="http://www.w3.org/2000/svg" version="1.1" x="0px" y="0px" viewBox="0 0 328.16116 44.762817" xml:space="preserve" id="svg101" sodipodi:docname="4182288_2230323.svg" inkscape:version="1.4.3 (0d15f75, 2025-12-25)"><defs id="defs101"/><sodipodi:namedview id="namedview101" pagecolor="#ffffff" bordercolor="#000000" borderopacity="0.25" inkscape:showpageshadow="2" inkscape:pageopacity="0.0" inkscape:pagecheckerboard="true" inkscape:deskcolor="#d1d1d1" inkscape:clip-to-page="true" inkscape:zoom="1.614" inkscape:cx="175.65056" inkscape:cy="15.179678" inkscape:window-width="1920" inkscape:window-height="1009" inkscape:window-x="-8" inkscape:window-y="-8" inkscape:window-maximized="1" inkscape:current-layer="g6"/>

<g id="g6" transform="matrix(1.0212691,0,0,1.0443139,-40.071108,-419.73515)">
		<path style="fill:#c2187a" d="m 321.331,429.011 c -2.961,-1.934 -5.88,-3.733 -8.66,-5.726 -0.803,-0.576 -1.483,-0.849 -2.393,-0.704 -4.578,0.728 -9.159,1.443 -13.733,2.196 -1.839,0.303 -3.665,0.692 -5.824,1.105 1.519,0.869 2.764,1.627 4.052,2.303 0.971,0.509 2.014,0.879 2.991,1.378 0.626,0.32 0.949,0.149 1.409,-0.353 1.149,-1.252 2.351,-2.518 4.317,-2.227 0.275,0.041 0.563,0.086 0.812,0.199 1.094,0.499 2.175,1.027 3.264,1.538 1.945,0.913 2.595,2.173 2.261,4.287 -0.349,2.203 -1.673,3.7 -3.461,4.862 -1.032,0.671 -2.088,0.353 -3.029,-0.16 -1.272,-0.694 -2.501,-1.481 -3.685,-2.318 -1.065,-0.753 -1.409,-1.937 -1.439,-3.177 -0.014,-0.599 -0.238,-0.82 -0.755,-1.07 -2.516,-1.217 -5.03,-2.446 -7.48,-3.787 -1.398,-0.765 -2.744,-0.974 -4.339,-0.751 -6.624,0.925 -13.267,1.714 -19.903,2.557 -0.349,0.044 -0.694,0.119 -1.2,0.208 0.942,0.679 1.869,1.183 2.585,1.9 1.086,1.088 2.083,2.281 3.005,3.513 0.536,0.717 0.6,1.6 -0.052,2.363 -0.659,0.771 -1.548,0.886 -2.433,0.606 -2.194,-0.692 -4.241,-1.731 -5.671,-3.57 -1.005,-1.292 -1.725,-2.806 -2.647,-4.346 -3.786,0.183 -7.8,0.378 -11.977,0.58 1.839,2.162 4.363,2.956 6.525,4.308 2.299,-1.241 3.551,-0.504 5.688,1.858 0.65,0.719 1.106,1.652 1.509,2.55 1.044,2.325 -0.689,5.061 -3.226,5.095 -1.161,0.015 -2.365,0.029 -3.478,-0.246 -3.117,-0.77 -4.26,-3.754 -2.581,-6.479 0.311,-0.505 0.639,-0.999 0.997,-1.557 -0.301,-0.172 -0.545,-0.298 -0.774,-0.446 -1.901,-1.219 -3.847,-2.376 -5.682,-3.689 -1.223,-0.876 -2.38,-1.515 -3.98,-1.296 -1.394,0.191 -2.83,0.087 -4.247,0.098 -1.41,0.011 -2.82,0.002 -4.291,0.002 1.004,1.053 2.091,1.935 2.838,3.047 0.751,1.118 1.37,2.415 1.676,3.72 0.498,2.128 -1.194,3.521 -3.281,2.818 -1.699,-0.573 -2.993,-1.739 -4.038,-3.164 -1.079,-1.472 -2.252,-4.714 -2.43,-6.605 -1.648,-0.212 -3.319,-0.449 -4.995,-0.638 -2.528,-0.285 -4.754,-1.33 -6.85,-2.691 -0.231,-0.15 -0.44,-0.625 -0.37,-0.864 0.07,-0.24 0.497,-0.508 0.778,-0.521 0.359,-0.016 0.79,0.13 1.083,0.349 2.29,1.715 4.987,2.1 7.707,2.419 0.909,0.106 1.822,0.177 2.461,0.238 0.858,-2.178 1.609,-4.218 2.464,-6.214 0.899,-2.097 2.363,-3.791 4.183,-5.137 0.693,-0.513 1.53,-0.934 2.364,-1.133 1.807,-0.431 2.912,0.644 2.446,2.444 -0.57,2.2 -1.361,4.375 -3.071,5.975 -1.612,1.509 -3.372,2.861 -4.994,4.223 0.047,0.003 0.338,0.043 0.63,0.043 3.615,-10e-4 7.229,0.002 10.844,-0.03 0.342,-0.003 0.813,-0.136 1.003,-0.381 1.91,-2.461 3.774,-4.957 5.649,-7.446 0.062,-0.082 0.094,-0.188 0.168,-0.339 -1.168,-0.991 -1.357,-2.349 -1.197,-3.758 0.151,-1.334 0.331,-2.686 0.725,-3.96 0.196,-0.634 0.805,-1.287 1.401,-1.615 0.85,-0.467 1.841,-0.75 2.806,-0.919 2.008,-0.353 3.873,1.195 3.977,3.261 0.099,1.98 -0.277,3.88 -1.215,5.645 -1.049,1.975 -1.926,2.409 -4.13,2.077 -0.243,-0.037 -0.485,-0.084 -0.678,-0.118 -1.845,2.441 -3.665,4.849 -5.653,7.479 4.431,-0.192 8.65,-0.375 12.935,-0.56 -0.086,-0.697 -0.165,-1.246 -0.22,-1.797 -0.438,-4.317 1.395,-7.859 3.857,-11.169 0.638,-0.858 1.465,-1.489 2.638,-1.175 0.956,0.256 1.723,1.318 1.697,2.576 -0.02,0.938 -0.133,1.947 -0.506,2.791 -1.24,2.802 -2.616,5.543 -3.969,8.369 0.569,-0.052 1.343,-0.106 2.113,-0.199 2.284,-0.276 4.567,-0.561 6.847,-0.862 0.215,-0.028 0.495,-0.142 0.606,-0.308 1.728,-2.587 3.427,-5.194 5.149,-7.785 0.428,-0.644 0.52,-1.172 0.261,-2.011 -0.594,-1.926 0.014,-3.693 1.395,-5.175 0.285,-0.306 0.643,-0.597 0.794,-0.965 0.821,-2.005 2.249,-2.028 4.386,-1.754 1.69,0.217 2.647,1.366 2.595,3.212 -0.04,1.427 -0.232,2.901 -0.667,4.254 -0.796,2.473 -3.032,3.352 -5.902,2.506 -0.479,-0.141 -0.845,-0.241 -1.176,0.277 -1.539,2.411 -3.103,4.806 -4.8,7.427 4.964,-0.633 9.798,-1.249 14.393,-1.834 0.262,-2.17 0.392,-4.142 0.759,-6.068 0.482,-2.532 1.814,-4.602 3.98,-6.058 0.825,-0.554 1.764,-1.145 2.753,-0.514 1.038,0.662 0.79,1.783 0.492,2.71 -0.452,1.406 -0.981,2.808 -1.667,4.112 -0.903,1.716 -1.989,3.336 -3.126,5.21 3.116,-0.589 6.032,-1.14 8.653,-1.635 0.065,-1.172 -0.06,-2.214 0.208,-3.142 0.866,-3.008 2.078,-5.878 4.031,-8.375 0.327,-0.417 0.678,-0.821 1.055,-1.192 0.606,-0.597 1.417,-1.172 2.159,-0.651 0.57,0.401 1.135,1.332 1.086,1.98 -0.096,1.267 -0.472,2.571 -1.01,3.731 -0.696,1.502 -1.583,2.935 -2.539,4.291 -0.72,1.021 -1.678,1.874 -2.631,2.91 2.87,-0.376 5.701,-0.748 8.576,-1.125 0.309,-1.705 0.654,-3.36 0.903,-5.03 0.373,-2.508 1.649,-4.493 3.444,-6.192 1.197,-1.132 2.279,-1.375 3.239,-0.783 1.053,0.649 1.587,2.099 1.255,3.456 -0.611,2.497 -1.73,4.711 -3.614,6.504 -0.485,0.462 -0.937,0.959 -1.574,1.615 2.761,-0.239 5.354,-0.464 7.967,-0.691 0.348,-2.79 1.612,-5.206 2.875,-7.61 0.906,-1.727 2.225,-3.134 3.939,-4.069 0.552,-0.301 1.492,-0.485 1.941,-0.211 0.445,0.272 0.705,1.198 0.681,1.823 -0.082,2.119 -0.951,3.969 -2.302,5.595 -1.151,1.385 -2.298,2.772 -3.583,4.322 1.764,0 3.403,0.013 5.04,-0.017 0.21,-0.004 0.448,-0.201 0.619,-0.366 2.293,-2.216 4.607,-4.412 6.834,-6.692 0.4,-0.41 0.578,-1.167 0.613,-1.778 0.098,-1.693 0.004,-3.396 0.105,-5.088 0.092,-1.531 0.565,-2.063 2.076,-2.418 1.962,-0.461 3.939,-0.865 5.922,-1.218 1.274,-0.227 1.901,0.326 1.896,1.616 -0.005,1.274 -0.065,2.551 -0.167,3.822 -0.106,1.319 -0.852,2.301 -1.844,3.112 -1.564,1.28 -3.4,1.885 -5.382,2.03 -0.791,0.058 -1.339,0.319 -1.909,0.904 -1.704,1.751 -3.503,3.41 -5.287,5.082 -0.306,0.287 -0.718,0.46 -1.081,0.686 0.09,0.14 0.18,0.279 0.27,0.419 1.461,0.111 2.924,0.202 4.383,0.338 1.903,0.177 3.799,0.505 5.704,0.548 1.524,0.034 3.059,-0.406 4.584,-0.376 2.324,0.046 4.664,0.179 6.957,0.535 2.004,0.311 3.363,1.766 4.403,3.427 0.805,1.286 0.142,2.533 -1.397,2.649 -1.848,0.139 -3.7,0.047 -5.412,-0.77 -1.277,-0.61 -2.586,-1.202 -3.743,-2.001 -2.538,-1.753 -5.447,-1.795 -8.563,-2.17 0.319,0.384 0.483,0.582 0.648,0.78 0.973,1.169 2.024,2.284 2.888,3.529 0.509,0.733 0.833,1.646 1.042,2.526 0.357,1.501 -0.628,2.428 -2.144,2.049 -2.304,-0.575 -4.124,-1.865 -5.282,-3.966 -0.837,-1.519 -1.635,-3.062 -2.364,-4.634 -0.287,-0.618 -0.647,-0.816 -1.288,-0.837 -6.844,-0.219 -13.668,-0.026 -20.605,1.13 2.563,1.621 5.126,3.243 7.738,4.895 1.629,-1.679 3.714,-1.381 5.632,-0.842 1.887,0.53 3.709,1.408 5.434,2.361 1.902,1.051 2.512,2.694 1.957,4.347 -0.368,1.098 -1.088,1.853 -2.226,2.061 -2.821,0.515 -5.632,0.457 -8.418,-0.287 -1.429,-0.382 -2.248,-1.29 -2.434,-2.749 -0.144,-1.081 -0.243,-2.172 -0.351,-3.177 z m 5.556,3.152 c 0.519,0.487 0.896,0.873 1.306,1.218 1.353,1.137 2.817,0.455 4.214,0.159 0.736,-0.156 1.145,-1.251 0.808,-1.926 -0.108,-0.217 -0.53,-0.44 -0.77,-0.405 -1.735,0.261 -3.461,0.586 -5.558,0.954 z m 14.302,-22.152 c 1.164,1.176 2.378,0.829 3.557,0.331 1.188,-0.502 2.272,-1.168 2.965,-2.57 -1.912,0.33 -3.601,0.65 -5.301,0.906 -1.342,0.202 -1.347,0.167 -1.221,1.333 z m -84.25,32.692 c 1.894,-0.003 2.594,-0.554 2.754,-2.167 0.083,-0.844 -0.199,-1.079 -1.008,-0.882 -0.852,0.208 -1.724,0.342 -2.559,0.599 -0.284,0.087 -0.637,0.42 -0.694,0.695 -0.316,1.519 -0.085,1.757 1.507,1.755 z m 46.286,-14.18 c 0.072,1.145 0.086,2.053 0.216,2.945 0.033,0.23 0.465,0.609 0.654,0.576 1.298,-0.224 2.581,-0.54 3.868,-0.826 0.02,-0.14 0.04,-0.28 0.06,-0.42 -1.522,-0.722 -3.044,-1.444 -4.798,-2.275 z m 20.791,-0.617 c -0.104,-0.036 -0.208,-0.072 -0.312,-0.108 -0.208,0.365 -0.571,0.721 -0.594,1.097 -0.053,0.873 -0.006,1.765 0.115,2.633 0.224,1.599 0.935,2.113 2.663,1.987 -0.627,-1.883 -1.249,-3.746 -1.872,-5.609 z m -72.563,-13.755 c -0.151,-0.005 -0.302,-0.01 -0.454,-0.016 -0.17,1.049 -0.425,2.094 -0.492,3.149 -0.126,2.007 0.525,2.586 2.743,2.489 -0.606,-1.896 -1.201,-3.759 -1.797,-5.622 z m 56.616,18.756 c -1.392,0.288 -2.748,0.568 -4.312,0.891 0.444,1.007 0.843,1.911 1.236,2.801 1.661,-0.557 2.883,-2.041 3.076,-3.692 z m -5.652,2.275 c -0.316,-1.994 -0.619,-3.913 -0.928,-5.859 -2.634,1.778 -2.237,4.287 0.928,5.859 z m 23.607,-7.534 c -0.092,0.131 -0.185,0.262 -0.277,0.393 0.221,0.625 0.418,1.261 0.679,1.869 0.079,0.185 0.347,0.427 0.512,0.416 1.347,-0.094 2.689,-0.243 4.033,-0.374 0.018,-0.14 0.035,-0.279 0.053,-0.419 -1.667,-0.629 -3.333,-1.257 -5,-1.885 z m -43.793,-14.033 c 0.914,-0.322 1.703,-0.592 2.484,-0.883 0.152,-0.057 0.399,-0.222 0.386,-0.299 -0.095,-0.535 -0.082,-1.317 -0.417,-1.531 -0.598,-0.382 -1.413,-0.439 -2.15,-0.55 -0.046,-0.007 -0.263,0.693 -0.289,1.072 -0.048,0.688 -0.014,1.383 -0.014,2.191 z m 65.589,-10.041 c -0.906,0.156 -1.754,0.301 -2.72,0.467 0.098,0.867 0.186,1.64 0.273,2.409 2.614,-0.233 2.769,-0.413 2.447,-2.876 z m -67.223,8.826 c -1.154,0.72 -1.966,2.389 -1.701,3.426 0.229,0.897 0.941,1.207 1.701,1.335 0,-1.609 0,-3.142 0,-4.761 z m 62.746,-7.871 c -2.082,0.305 -2.402,0.729 -1.987,2.561 2.66,-0.095 2.776,-0.239 1.987,-2.561 z m -90.745,7.996 c 0.272,0.809 0.522,1.554 0.784,2.333 0.822,-0.746 1.545,-1.403 2.254,-2.047 -0.783,-0.978 -1.315,-1.019 -3.038,-0.286 z m 2.076,6.465 c 0.145,0.019 0.291,0.038 0.436,0.057 0.391,-1.383 0.782,-2.767 1.173,-4.15 -0.088,-0.031 -0.176,-0.063 -0.264,-0.094 -0.667,0.537 -1.334,1.075 -2.073,1.67 0.226,0.78 0.477,1.649 0.728,2.517 z m 4.05,18.89 c -0.985,-0.829 -1.808,-1.521 -2.817,-2.371 -0.09,1.244 -0.156,2.165 -0.23,3.193 0.734,-0.154 1.321,-0.262 1.899,-0.404 0.295,-0.072 0.575,-0.206 1.148,-0.418 z m 23.849,-20.551 c 1.374,-0.157 2.274,-1.383 2.04,-2.781 -2.424,0.655 -2.574,0.859 -2.04,2.781 z m -28.911,24.46 c 0.175,-1.597 0.334,-3.05 0.514,-4.702 -1.86,1.963 -2.016,3.373 -0.514,4.702 z" id="path4"/>
		<path style="fill:#c2187a" d="m 205.756,438.601 c -0.633,-0.064 -1.266,-0.13 -1.899,-0.191 -1.001,-0.097 -1.946,-0.257 -2.933,0.365 -0.941,0.593 -2.084,0.385 -3.058,-0.136 -2.578,-1.38 -4.879,-3.141 -6.879,-5.276 -0.892,-0.952 -1.381,-2.043 -0.869,-3.398 0.087,-0.231 -0.055,-0.596 -0.184,-0.853 -0.665,-1.326 -1.409,-2.615 -2.033,-3.959 -0.664,-1.432 -0.457,-2.217 0.734,-3.304 1.018,-0.929 2.076,-1.815 3.074,-2.765 0.265,-0.252 0.496,-0.658 0.528,-1.012 0.079,-0.859 0.485,-1.439 1.286,-1.621 2.027,-0.462 4.073,-0.838 6.103,-1.286 0.514,-0.114 1.035,-0.306 1.486,-0.575 0.91,-0.544 1.742,-1.222 2.664,-1.743 1.397,-0.789 2.795,-0.497 3.572,0.903 0.641,1.156 0.986,2.476 1.463,3.723 0.109,0.285 0.139,0.672 0.345,0.835 2.494,1.974 3.799,4.727 4.839,7.59 1.084,2.985 0.324,4.527 -2.491,5.939 -0.348,0.175 -0.646,0.668 -0.746,1.069 -0.17,0.679 -0.171,1.401 -0.229,2.105 -0.179,2.163 -1.236,3.275 -3.389,3.514 -0.454,0.05 -0.919,0.007 -1.379,0.007 -0.003,0.023 -0.004,0.046 -0.005,0.069 z m -2.083,-16.545 c 0.113,-0.394 0.255,-0.787 0.336,-1.192 0.543,-2.697 -0.469,-4.146 -3.201,-4.052 -2.096,0.072 -4.181,0.603 -6.256,1.007 -0.247,0.048 -0.596,0.604 -0.565,0.889 0.218,2.002 0.49,4 0.81,5.989 0.221,1.374 0.983,2.026 2.407,2.23 0.627,-1.049 1.254,-2.099 1.913,-3.203 -0.72,-0.506 -1.44,-0.91 -2.015,-1.465 -0.241,-0.233 -0.175,-0.785 -0.248,-1.192 0.385,-0.02 0.809,-0.151 1.147,-0.034 0.492,0.17 0.922,0.519 1.575,0.91 -0.268,-0.946 -0.555,-1.613 -0.61,-2.3 -0.027,-0.346 0.369,-0.725 0.574,-1.089 0.325,0.249 0.759,0.436 0.947,0.764 0.257,0.447 0.289,1.018 0.491,1.505 0.106,0.255 0.328,0.556 0.568,0.644 0.659,0.242 1.355,0.383 2.127,0.589 z m -3.823,8.883 c -0.14,0.906 -0.186,1.763 -0.429,2.558 -0.139,0.456 -0.599,1.152 -0.915,1.152 -0.832,10e-4 -0.752,-0.769 -0.676,-1.372 0.099,-0.782 0.248,-1.558 0.416,-2.583 -0.925,0.626 -1.588,1.165 -2.335,1.541 -0.358,0.18 -1.053,0.24 -1.279,0.023 -0.514,-0.491 -0.062,-0.971 0.379,-1.304 0.593,-0.448 1.215,-0.858 1.83,-1.276 0.654,-0.444 0.45,-0.781 -0.126,-1.072 -0.933,-0.472 -1.869,-0.939 -2.903,-1.458 -0.509,0.757 -1.09,1.594 -1.644,2.448 -0.849,1.31 -0.924,1.894 0.232,2.883 1.928,1.651 3.969,3.186 6.063,4.623 1.119,0.767 2.151,0.518 2.811,-0.676 0.856,-1.55 1.456,-3.243 2.222,-5.004 -1.38,-0.182 -2.425,-0.321 -3.646,-0.483 z m 5.864,-6.087 c 0.853,-0.386 1.646,-0.771 2.461,-1.104 0.559,-0.229 1.237,-0.501 1.533,0.303 0.269,0.73 -0.367,0.948 -0.902,1.181 -0.71,0.309 -1.405,0.651 -2.107,0.979 0.941,0.251 1.798,0.267 2.614,0.46 0.299,0.071 0.499,0.561 0.743,0.86 -0.322,0.211 -0.629,0.571 -0.967,0.602 -0.806,0.074 -1.63,0.038 -2.439,-0.039 -0.706,-0.067 -0.966,0.219 -1.343,0.824 -0.599,0.963 -0.537,1.846 -0.259,2.936 2.359,-0.414 4.718,-0.844 6.832,-2.073 0.815,-0.473 1.099,-1.276 0.897,-2.204 -0.523,-2.398 -1.671,-4.505 -3.121,-6.448 -1.317,-1.763 -1.578,-1.761 -3.206,-0.281 -0.131,0.119 -0.26,0.242 -0.374,0.376 -0.886,1.033 -1.05,2.418 -0.362,3.628 z m -5.934,4.235 c 3.187,1.266 4.34,0.488 4.409,-3.06 0.001,-0.07 0.003,-0.145 -0.016,-0.211 -0.288,-1.005 -0.649,-1.975 -1.729,-2.383 -0.238,-0.09 -0.693,-0.061 -0.824,0.098 -1.001,1.211 -1.946,2.468 -2.909,3.711 0.125,0.036 0.251,0.072 0.376,0.108 0.217,0.543 0.433,1.085 0.693,1.737 z m 3.383,7.667 c 1.593,0 3.087,0.055 4.572,-0.041 0.348,-0.022 0.869,-0.505 0.955,-0.861 0.242,-0.998 0.297,-2.041 0.431,-3.101 -1.669,0.28 -3.133,0.525 -4.711,0.789 -0.339,0.876 -0.757,1.955 -1.247,3.214 z m -10.456,-16.197 c -1.12,0.933 -2.095,1.692 -2.995,2.53 -0.262,0.244 -0.525,0.8 -0.419,1.07 0.506,1.299 1.139,2.548 1.857,4.097 0.794,-1.251 1.769,-2.159 1.929,-3.193 0.213,-1.383 -0.205,-2.864 -0.372,-4.504 z m 13.042,-1.23 c 0.595,-0.673 1.629,-0.639 1.422,-1.694 -0.258,-1.317 -0.455,-2.821 -1.747,-3.432 -0.959,-0.453 -1.673,0.643 -2.606,1.205 1.838,0.734 2.769,1.912 2.931,3.921 z" id="path5"/>
		<path style="fill:#c2187a" d="m 78.118,432.739 c -0.187,1.458 -1.006,2.367 -2.434,2.749 -2.786,0.744 -5.598,0.803 -8.418,0.287 -1.138,-0.208 -1.858,-0.963 -2.226,-2.061 -0.554,-1.652 0.056,-3.296 1.957,-4.347 1.725,-0.953 3.547,-1.831 5.434,-2.361 1.918,-0.538 4.003,-0.836 5.632,0.842 2.612,-1.653 5.175,-3.274 7.738,-4.895 -6.937,-1.156 -13.761,-1.349 -20.605,-1.13 -0.641,0.02 -1.001,0.219 -1.288,0.837 -0.73,1.572 -1.528,3.115 -2.364,4.634 -1.158,2.102 -2.977,3.391 -5.282,3.966 -1.516,0.378 -2.501,-0.548 -2.144,-2.049 0.209,-0.879 0.533,-1.792 1.042,-2.526 0.864,-1.245 1.916,-2.359 2.888,-3.529 0.165,-0.198 0.329,-0.396 0.648,-0.78 -3.115,0.375 -6.025,0.417 -8.563,2.17 -1.157,0.799 -2.466,1.392 -3.743,2.001 -1.712,0.818 -3.564,0.909 -5.412,0.77 -1.539,-0.116 -2.202,-1.363 -1.397,-2.649 1.039,-1.661 2.398,-3.115 4.403,-3.427 2.293,-0.356 4.634,-0.489 6.957,-0.535 1.525,-0.031 3.06,0.41 4.584,0.376 1.904,-0.043 3.801,-0.371 5.704,-0.548 1.459,-0.135 2.922,-0.227 4.383,-0.338 0.09,-0.14 0.18,-0.279 0.27,-0.419 -0.363,-0.226 -0.775,-0.399 -1.081,-0.686 -1.784,-1.672 -3.583,-3.331 -5.287,-5.082 -0.57,-0.586 -1.117,-0.846 -1.909,-0.904 -1.981,-0.145 -3.817,-0.75 -5.382,-2.03 -0.992,-0.811 -1.738,-1.793 -1.844,-3.112 -0.103,-1.27 -0.162,-2.547 -0.167,-3.822 -0.005,-1.29 0.622,-1.843 1.896,-1.616 1.984,0.353 3.961,0.757 5.922,1.218 1.511,0.355 1.983,0.887 2.075,2.418 0.102,1.692 0.007,3.396 0.105,5.088 0.035,0.611 0.213,1.368 0.613,1.778 2.228,2.28 4.541,4.476 6.834,6.692 0.17,0.165 0.409,0.362 0.619,0.366 1.638,0.03 3.276,0.017 5.04,0.017 -1.284,-1.549 -2.432,-2.937 -3.583,-4.322 -1.351,-1.626 -2.22,-3.477 -2.302,-5.595 -0.024,-0.625 0.236,-1.551 0.681,-1.823 0.449,-0.275 1.389,-0.09 1.941,0.211 1.713,0.935 3.032,2.343 3.939,4.07 1.262,2.404 2.527,4.82 2.875,7.61 2.613,0.227 5.206,0.452 7.967,0.691 -0.637,-0.656 -1.089,-1.153 -1.574,-1.615 -1.884,-1.793 -3.003,-4.008 -3.614,-6.504 -0.332,-1.358 0.202,-2.808 1.255,-3.456 0.961,-0.592 2.043,-0.349 3.239,0.783 1.796,1.698 3.071,3.684 3.444,6.192 0.248,1.67 0.593,3.326 0.903,5.03 2.875,0.377 5.705,0.748 8.576,1.125 -0.952,-1.037 -1.911,-1.89 -2.631,-2.91 -0.956,-1.356 -1.843,-2.789 -2.539,-4.291 -0.537,-1.16 -0.913,-2.465 -1.01,-3.731 -0.049,-0.649 0.515,-1.58 1.086,-1.98 0.742,-0.522 1.552,0.054 2.159,0.651 0.378,0.371 0.729,0.775 1.055,1.192 1.953,2.496 3.165,5.366 4.031,8.375 0.267,0.928 0.143,1.97 0.208,3.142 2.621,0.495 5.537,1.046 8.653,1.635 -1.136,-1.874 -2.223,-3.493 -3.126,-5.21 -0.686,-1.304 -1.216,-2.706 -1.667,-4.112 -0.298,-0.927 -0.545,-2.048 0.492,-2.71 0.989,-0.631 1.928,-0.04 2.753,0.514 2.166,1.456 3.498,3.526 3.98,6.058 0.367,1.926 0.497,3.898 0.759,6.068 4.595,0.586 9.429,1.202 14.393,1.834 -1.698,-2.621 -3.261,-5.016 -4.8,-7.427 -0.331,-0.518 -0.697,-0.418 -1.176,-0.277 -2.871,0.846 -5.107,-0.033 -5.902,-2.506 -0.435,-1.353 -0.627,-2.827 -0.667,-4.254 -0.052,-1.846 0.905,-2.995 2.595,-3.212 2.137,-0.274 3.565,-0.251 4.386,1.754 0.151,0.369 0.509,0.66 0.794,0.965 1.381,1.482 1.989,3.25 1.395,5.175 -0.259,0.839 -0.167,1.367 0.261,2.011 1.722,2.591 3.42,5.198 5.149,7.785 0.111,0.166 0.39,0.279 0.606,0.308 2.281,0.301 4.563,0.586 6.847,0.862 0.77,0.093 1.544,0.146 2.113,0.199 -1.353,-2.826 -2.729,-5.567 -3.969,-8.369 -0.373,-0.844 -0.486,-1.853 -0.506,-2.791 -0.026,-1.258 0.741,-2.32 1.697,-2.576 1.174,-0.315 2,0.317 2.638,1.175 2.462,3.311 4.295,6.852 3.857,11.169 -0.056,0.551 -0.134,1.101 -0.22,1.797 4.285,0.186 8.505,0.369 12.935,0.561 -1.988,-2.63 -3.808,-5.038 -5.653,-7.479 -0.193,0.034 -0.435,0.081 -0.678,0.118 -2.204,0.332 -3.081,-0.103 -4.13,-2.077 -0.938,-1.764 -1.314,-3.665 -1.215,-5.645 0.103,-2.066 1.968,-3.614 3.977,-3.261 0.965,0.17 1.956,0.452 2.806,0.919 0.596,0.327 1.205,0.981 1.401,1.615 0.395,1.274 0.574,2.627 0.725,3.96 0.16,1.409 -0.028,2.767 -1.197,3.758 0.073,0.151 0.105,0.256 0.168,0.339 1.874,2.489 3.739,4.985 5.649,7.446 0.19,0.245 0.661,0.378 1.003,0.381 3.614,0.032 7.229,0.029 10.844,0.03 0.292,0 0.583,-0.04 0.63,-0.043 -1.623,-1.361 -3.382,-2.713 -4.994,-4.223 -1.71,-1.601 -2.501,-3.775 -3.071,-5.975 -0.466,-1.8 0.638,-2.876 2.446,-2.444 0.834,0.199 1.671,0.62 2.364,1.133 1.819,1.347 3.284,3.04 4.183,5.137 0.855,1.996 1.606,4.036 2.464,6.214 0.638,-0.061 1.552,-0.132 2.461,-0.238 2.72,-0.318 5.417,-0.704 7.707,-2.419 0.293,-0.219 0.724,-0.365 1.083,-0.349 0.281,0.012 0.708,0.28 0.778,0.521 0.07,0.239 -0.139,0.714 -0.37,0.864 -2.096,1.36 -4.322,2.406 -6.85,2.691 -1.676,0.189 -3.346,0.426 -4.995,0.638 -0.178,1.89 -1.351,5.133 -2.43,6.605 -1.045,1.425 -2.339,2.591 -4.038,3.164 -2.087,0.704 -3.779,-0.69 -3.281,-2.818 0.305,-1.305 0.925,-2.603 1.676,-3.72 0.747,-1.112 1.834,-1.995 2.838,-3.047 -1.471,0 -2.881,0.009 -4.291,-0.002 -1.417,-0.011 -2.853,0.093 -4.247,-0.098 -1.6,-0.22 -2.757,0.42 -3.98,1.296 -1.834,1.313 -3.781,2.469 -5.682,3.689 -0.23,0.147 -0.473,0.273 -0.774,0.446 0.358,0.558 0.686,1.052 0.997,1.557 1.678,2.725 0.536,5.709 -2.581,6.479 -1.113,0.275 -2.317,0.261 -3.478,0.246 -2.537,-0.034 -4.27,-2.769 -3.226,-5.095 0.403,-0.898 0.859,-1.831 1.509,-2.55 2.137,-2.363 3.389,-3.1 5.688,-1.858 2.162,-1.351 4.686,-2.146 6.525,-4.308 -4.177,-0.202 -8.191,-0.397 -11.977,-0.58 -0.922,1.54 -1.643,3.053 -2.647,4.346 -1.43,1.839 -3.477,2.878 -5.671,3.57 -0.885,0.279 -1.774,0.164 -2.433,-0.606 -0.652,-0.763 -0.589,-1.646 -0.052,-2.363 0.922,-1.232 1.919,-2.425 3.005,-3.513 0.715,-0.717 1.643,-1.222 2.585,-1.9 -0.506,-0.088 -0.851,-0.163 -1.2,-0.208 -6.636,-0.843 -13.278,-1.632 -19.903,-2.557 -1.595,-0.223 -2.941,-0.014 -4.339,0.751 -2.451,1.341 -4.965,2.57 -7.48,3.787 -0.518,0.251 -0.741,0.471 -0.755,1.07 -0.029,1.24 -0.374,2.424 -1.439,3.177 -1.184,0.837 -2.413,1.624 -3.685,2.318 -0.941,0.514 -1.997,0.831 -3.029,0.16 -1.788,-1.162 -3.112,-2.659 -3.461,-4.862 -0.334,-2.114 0.316,-3.374 2.261,-4.287 1.089,-0.511 2.17,-1.04 3.264,-1.538 0.249,-0.114 0.537,-0.159 0.812,-0.199 1.966,-0.291 3.168,0.975 4.317,2.227 0.46,0.501 0.782,0.672 1.409,0.353 0.977,-0.499 2.02,-0.868 2.991,-1.378 1.288,-0.676 2.533,-1.434 4.052,-2.303 -2.16,-0.413 -3.985,-0.802 -5.824,-1.105 -4.574,-0.753 -9.155,-1.468 -13.733,-2.196 -0.91,-0.145 -1.59,0.129 -2.393,0.704 -2.781,1.992 -5.7,3.792 -8.66,5.726 -0.112,0.996 -0.211,2.088 -0.35,3.175 z m -10.769,-0.984 c -0.24,-0.036 -0.662,0.187 -0.77,0.405 -0.336,0.674 0.072,1.77 0.808,1.926 1.398,0.296 2.861,0.978 4.214,-0.16 0.411,-0.345 0.787,-0.731 1.306,-1.218 -2.096,-0.369 -3.822,-0.693 -5.558,-0.953 z m -9.964,-22.532 c -1.699,-0.256 -3.389,-0.576 -5.301,-0.906 0.692,1.402 1.776,2.068 2.965,2.57 1.179,0.498 2.394,0.845 3.557,-0.331 0.126,-1.167 0.121,-1.131 -1.221,-1.333 z m 86.978,32.269 c -0.057,-0.275 -0.41,-0.608 -0.694,-0.695 -0.835,-0.257 -1.707,-0.391 -2.559,-0.599 -0.809,-0.197 -1.092,0.037 -1.008,0.882 0.16,1.614 0.86,2.165 2.754,2.167 1.592,0.003 1.822,-0.236 1.507,-1.755 z m -52.592,-10.15 c 0.02,0.14 0.04,0.28 0.06,0.42 1.288,0.286 2.57,0.602 3.868,0.826 0.189,0.033 0.621,-0.346 0.654,-0.576 0.13,-0.892 0.144,-1.8 0.216,-2.945 -1.753,0.832 -3.276,1.554 -4.798,2.275 z m -17.865,2.718 c 1.729,0.126 2.439,-0.388 2.663,-1.987 0.122,-0.868 0.169,-1.76 0.115,-2.633 -0.023,-0.376 -0.386,-0.732 -0.594,-1.097 -0.104,0.036 -0.208,0.072 -0.312,0.108 -0.622,1.863 -1.244,3.726 -1.872,5.609 z m 72.638,-13.742 c 2.218,0.098 2.869,-0.482 2.743,-2.489 -0.066,-1.056 -0.322,-2.1 -0.492,-3.149 -0.151,0.005 -0.302,0.01 -0.454,0.016 -0.595,1.862 -1.191,3.726 -1.797,5.622 z m -51.741,16.825 c 0.392,-0.889 0.791,-1.794 1.236,-2.801 -1.565,-0.323 -2.921,-0.604 -4.312,-0.891 0.192,1.652 1.414,3.136 3.076,3.692 z m 3.503,-7.276 c -0.308,1.946 -0.612,3.865 -0.928,5.859 3.165,-1.571 3.562,-4.08 0.928,-5.859 z m -29.535,0.21 c 0.018,0.14 0.035,0.279 0.053,0.419 1.344,0.132 2.687,0.28 4.033,0.374 0.165,0.012 0.432,-0.231 0.512,-0.416 0.261,-0.608 0.457,-1.244 0.679,-1.869 -0.092,-0.131 -0.185,-0.262 -0.277,-0.393 -1.667,0.629 -3.333,1.257 -5,1.885 z m 48.779,-18.108 c -0.027,-0.379 -0.243,-1.079 -0.289,-1.072 -0.737,0.111 -1.552,0.168 -2.15,0.55 -0.334,0.213 -0.322,0.996 -0.417,1.531 -0.014,0.077 0.234,0.242 0.386,0.299 0.781,0.292 1.57,0.561 2.484,0.883 -10e-4,-0.809 0.034,-1.503 -0.014,-2.191 z m -63.129,-4.974 c 0.087,-0.769 0.175,-1.542 0.273,-2.409 -0.966,-0.166 -1.814,-0.312 -2.72,-0.467 -0.321,2.462 -0.166,2.642 2.447,2.876 z m 64.777,10.711 c 0.76,-0.128 1.473,-0.438 1.701,-1.335 0.265,-1.037 -0.548,-2.707 -1.701,-3.426 0,1.619 0,3.152 0,4.761 z M 58.439,407.634 c 0.415,-1.832 0.095,-2.256 -1.987,-2.561 -0.789,2.323 -0.673,2.466 1.987,2.561 z m 85.719,5.722 c 0.709,0.644 1.432,1.301 2.254,2.047 0.262,-0.779 0.512,-1.524 0.784,-2.333 -1.722,-0.733 -2.255,-0.693 -3.038,0.286 z m 1.69,3.662 c -0.739,-0.595 -1.406,-1.132 -2.073,-1.67 -0.088,0.031 -0.176,0.063 -0.264,0.094 0.391,1.383 0.782,2.767 1.173,4.15 0.145,-0.019 0.291,-0.038 0.436,-0.057 0.252,-0.869 0.503,-1.737 0.728,-2.517 z m -3.629,21.825 c 0.578,0.142 1.165,0.25 1.899,0.404 -0.074,-1.028 -0.141,-1.949 -0.23,-3.193 -1.01,0.85 -1.833,1.542 -2.817,2.371 0.573,0.212 0.853,0.345 1.148,0.418 z m -27.037,-23.75 c -0.233,1.397 0.666,2.624 2.04,2.781 0.534,-1.923 0.384,-2.127 -2.04,-2.781 z m 30.436,22.538 c 0.181,1.652 0.34,3.105 0.514,4.702 1.503,-1.329 1.347,-2.739 -0.514,-4.702 z" id="path6"/>
	</g>

</svg>