<?xml version="1.0" encoding="UTF-8" standalone="no"?>
<!-- Generator: Adobe Illustrator 27.5.0, SVG Export Plug-In . SVG Version: 6.00 Build 0)  -->

<svg
   version="1.1"
   id="Layer_1"
   x="0px"
   y="0px"
   viewBox="0 0 450.09534 532.98786"
   xml:space="preserve"
   sodipodi:docname="Monoleft.svg"
   width="450.09534"
   height="532.98785"
   inkscape:version="1.4.3 (0d15f75, 2025-12-25)"
   xmlns:inkscape="http://www.inkscape.org/namespaces/inkscape"
   xmlns:sodipodi="http://sodipodi.sourceforge.net/DTD/sodipodi-0.dtd"
   xmlns="http://www.w3.org/2000/svg"
   xmlns:svg="http://www.w3.org/2000/svg"><defs
   id="defs302" /><sodipodi:namedview
   id="namedview302"
   pagecolor="#ffffff"
   bordercolor="#000000"
   borderopacity="0.25"
   inkscape:showpageshadow="2"
   inkscape:pageopacity="0.0"
   inkscape:pagecheckerboard="0"
   inkscape:deskcolor="#d1d1d1"
   inkscape:zoom="0.4035"
   inkscape:cx="-405.20446"
   inkscape:cy="434.94424"
   inkscape:window-width="1920"
   inkscape:window-height="1009"
   inkscape:window-x="-8"
   inkscape:window-y="-8"
   inkscape:window-maximized="1"
   inkscape:current-layer="Layer_1" />
<g
   id="g86"
   transform="rotate(-60.569242,429.73298,1753.153)"
   inkscape:transform-center-x="-13.90261"
   inkscape:transform-center-y="-0.35845217">
			<path
   style="clip-rule:evenodd;fill:#f3e9e4;fill-rule:evenodd"
   d="m 1627.532,762.324 c 0.408,-0.564 2.899,-2.114 11.726,-6.178 16.49,-7.596 26.146,-10.579 35.652,-18.262 9.506,-7.682 41.46,-33.689 66.725,-45.134 25.265,-11.448 54.269,-20.028 63.192,-20.978 8.923,-0.953 16.726,5.256 24.374,13.783 7.649,8.525 23.242,18.094 23.062,25.433 -0.177,7.339 -1.171,14.16 -5.263,21.151 -4.09,6.991 -25.08,39.54 -47.045,44.453 -21.962,4.91 -30.898,7.478 -46.584,9.898 -15.686,2.422 -61.409,7.138 -74.292,10.034 -12.881,2.894 -5.614,0.838 5.395,9.53 11.006,8.695 48.672,45.574 64.31,67.97 15.638,22.399 32.669,54.166 39.571,70.838 6.9,16.673 17.854,44.194 17.813,47.921 -0.041,3.727 -2.546,5.827 -7.51,6.25 -4.963,0.422 -9.862,3.096 -11.83,5.275 -1.968,2.182 -2.806,6.077 -6.233,2.739 -3.425,-3.339 -9.456,-29.616 -16.174,-44.616 -6.718,-14.998 -16.063,-45.077 -32.738,-66.355 -16.678,-21.278 -41.573,-47.866 -53.254,-58.375 -11.683,-10.507 -45.72,-33.91 -45.72,-33.91 0,0 -4.877,3.42 -8.486,4.169 -3.61,0.749 -6.626,-0.024 -6.626,-0.024 0,0 -21.634,9.48 -50.698,24.962 -29.062,15.48 -57.578,34.728 -60.742,37.946 -3.166,3.218 -33.962,27.742 -58.971,50.57 -25.01,22.829 -34.987,30.874 -37.361,35.604 -2.371,4.728 -5.184,13.994 -8.686,10.178 -3.501,-3.814 -4.615,-8.134 -10.03,-12.026 -5.414,-3.893 -15.24,-2.273 -13.435,-9.463 1.805,-7.19 25.872,-43.903 43.939,-59.657 18.067,-15.751 52.022,-39.991 86.945,-57.605 34.92,-17.611 63.063,-30.043 63.063,-30.043 0,0 -19.205,0.761 -37.987,-0.847 -18.782,-1.608 -41.338,0.895 -55.334,4.795 -13.999,3.902 -53.179,6.811 -57.555,5.602 -4.375,-1.207 -25.653,-1.728 -31.046,-23.513 -5.393,-21.782 -6.375,-40.296 -0.569,-50.427 5.808,-10.128 24.694,-32.777 51.65,-38.794 26.957,-6.017 40.574,-0.555 68.448,9.638 27.871,10.193 45.202,22.639 55.594,28.848 10.394,6.211 39.835,29.808 39.835,29.808 0,0 -3.216,-4.848 6.166,-4.08 7.58,0.624 14.377,2.278 16.709,2.892 -0.355,0.49 0.859,0.233 0.859,0.233 0,0 -0.302,-0.086 -0.859,-0.233 z m 22.971,12.094 c 0,0 5.93,-4.57 14.503,-8.714 8.573,-4.145 39.569,-20.112 49.992,-28.757 10.425,-8.645 24.523,-19.834 45.254,-26.53 20.734,-6.694 61.51,-11.323 61.51,-11.323 0,0 4.86,-0.298 3.73,7.949 -1.128,8.246 -9.197,34.08 -23.546,40.27 -14.35,6.19 -19.836,9.418 -39.607,12.142 -19.771,2.724 -44.57,4.769 -56.441,8.083 -11.87,3.314 -36.451,9.142 -45.334,9.842 -8.881,0.703 -10.061,-2.962 -10.061,-2.962 z m -248.518,-22.191 c 0,0 11.789,-12.082 28.874,-19.884 17.086,-7.802 36.266,-7.409 57.269,2.127 21,9.538 46.368,18.257 57.158,20.686 10.793,2.431 31.253,14.496 33.456,17.542 2.203,3.048 2.417,5.774 -6.689,2.366 -9.103,-3.408 -45.85,-11.534 -55.942,-12.461 -10.092,-0.926 -46.706,-1.781 -59.071,1.346 -12.367,3.125 -31.63,7.709 -41.875,4.19 -10.245,-3.518 -13.18,-15.912 -13.18,-15.912 z"
   id="path74" />
			<g
   transform="matrix(2.32344,0,0,2.32344,-8581.14,-4777.5)"
   id="g85">
				<path
   style="clip-rule:evenodd;fill:#c2187a;fill-rule:evenodd"
   d="m 4383.23,2386.731 c -0.504,-0.045 -0.902,-0.466 -0.91,-0.981 -0.01,-0.552 0.435,-1.003 0.986,-1.01 0.615,-0.01 1.263,0.365 1.784,1.083 0.736,1.018 1.303,2.801 1.514,3.382 0.771,2.124 0.941,4.368 1.075,6.595 0.123,2.045 0.214,4.073 0.837,5.947 0.175,0.523 -0.108,1.087 -0.631,1.262 -0.523,0.175 -1.09,-0.108 -1.263,-0.631 -0.679,-2.038 -0.804,-4.236 -0.936,-6.456 -0.125,-2.038 -0.255,-4.094 -0.96,-6.036 -0.158,-0.435 -0.525,-1.646 -1.034,-2.542 -0.131,-0.236 -0.397,-0.538 -0.462,-0.613 z"
   id="path75" />
				<path
   style="clip-rule:evenodd;fill:#c2187a;fill-rule:evenodd"
   d="m 4385.035,2384.891 c -0.024,-0.214 -0.012,-0.384 0.084,-0.507 0.12,-0.149 0.319,-0.221 0.544,-0.278 0.317,-0.082 0.684,-0.108 1.083,-0.101 2.237,0.031 5.316,1.104 6.17,1.817 1.049,0.874 1.8,2.494 2.287,4.365 0.775,2.976 0.842,6.603 0,9.25 -0.475,1.507 -1.217,2.705 -2.41,3.058 -0.79,0.233 -1.735,0.072 -2.87,-0.506 -0.492,-0.25 -1.092,-0.055 -1.342,0.437 -0.252,0.49 -0.055,1.092 0.435,1.342 1.708,0.871 3.153,0.993 4.341,0.643 1.767,-0.521 3.046,-2.141 3.751,-4.373 0.936,-2.962 0.89,-7.02 0.021,-10.354 -0.607,-2.333 -1.634,-4.308 -2.94,-5.395 -0.612,-0.511 -2.131,-1.214 -3.845,-1.697 -1.704,-0.48 -3.593,-0.737 -4.922,-0.478 -0.934,0.182 -1.635,0.614 -2.033,1.255 -0.278,0.451 -0.425,1.02 -0.348,1.735 0.06,0.547 0.554,0.946 1.102,0.886 0.548,-0.06 0.944,-0.552 0.887,-1.099 z"
   id="path76" />
				<path
   style="clip-rule:evenodd;fill:#c2187a;fill-rule:evenodd"
   d="m 4395.588,2383.887 c -0.137,0.389 -0.507,0.67 -0.943,0.67 -0.55,0 -0.999,-0.449 -0.999,-0.998 0,-0.396 0.281,-0.989 1.015,-1.476 1.457,-0.967 5.165,-2.174 5.885,-2.45 6.667,-2.563 12.848,-6.564 18.528,-10.882 11.633,-8.842 23.923,-16.33 37.838,-20.969 4.027,-1.342 8.347,-3.509 12.648,-3.725 5.477,-0.274 8.038,2.827 11.748,6.25 2.585,2.388 4.793,4.313 6.439,6.127 1.776,1.961 2.916,3.821 3.269,5.928 0.46,2.755 -0.425,5.998 -3.281,10.57 -1.159,1.853 -1.99,3.881 -3.314,5.647 -9.734,12.979 -26.136,15.319 -41.352,17.263 -10.277,1.31 -20.472,3.197 -30.737,4.622 -5.057,0.703 -10.046,-0.034 -14.974,1.416 -0.528,0.154 -1.085,-0.149 -1.241,-0.677 -0.154,-0.528 0.149,-1.085 0.677,-1.239 5.023,-1.478 10.109,-0.761 15.264,-1.478 10.272,-1.426 20.474,-3.314 30.758,-4.627 14.69,-1.875 30.607,-3.946 40.008,-16.479 1.289,-1.721 2.088,-3.703 3.216,-5.508 2.494,-3.991 3.408,-6.775 3.004,-9.18 -0.292,-1.762 -1.296,-3.283 -2.779,-4.917 -1.613,-1.779 -3.78,-3.663 -6.314,-6 -3.283,-3.031 -5.443,-5.967 -10.293,-5.724 -4.124,0.206 -8.254,2.338 -12.113,3.624 -13.708,4.57 -25.807,11.957 -37.262,20.664 -5.832,4.43 -12.18,8.525 -19.022,11.157 -0.595,0.228 -3.362,1.114 -4.968,1.947 -0.271,0.14 -0.583,0.358 -0.705,0.444 z"
   id="path77" />
				<path
   style="clip-rule:evenodd;fill:#c2187a;fill-rule:evenodd"
   d="m 4478.258,2352.471 c -0.079,-0.142 -0.123,-0.305 -0.123,-0.478 0,-0.552 0.446,-0.998 0.999,-0.998 0.288,0 0.574,0.098 0.809,0.382 0.113,0.137 0.293,0.506 0.322,1.077 0.063,1.282 -0.269,4.527 -0.269,4.982 0,1.097 -0.177,2.131 -0.276,3.219 -0.729,8.033 -3.953,14.064 -11.134,17.93 -10.202,5.496 -23.112,6.588 -34.349,8.138 -7.565,1.042 -14.911,3.314 -22.45,4.354 -4.596,0.634 -8.995,-0.261 -13.558,-0.098 -0.549,0.019 -1.013,-0.413 -1.032,-0.962 -0.022,-0.552 0.41,-1.015 0.962,-1.034 4.493,-0.161 8.825,0.742 13.356,0.118 7.538,-1.042 14.882,-3.312 22.447,-4.354 11.011,-1.519 23.676,-2.534 33.677,-7.918 6.538,-3.521 9.425,-9.041 10.092,-16.354 0.091,-1.027 0.267,-2.004 0.267,-3.039 0,-0.36 0.206,-2.448 0.264,-3.943 0.015,-0.383 0,-0.825 0,-1.022 z m 0.828,0.519 c 0.015,0 0.031,0 0.048,0 z m -0.24,-0.041 c 0.077,0.024 0.153,0.038 0.233,0.041 -0.082,0 -0.159,-0.017 -0.233,-0.041 z"
   id="path78" />
				<path
   style="clip-rule:evenodd;fill:#c2187a;fill-rule:evenodd"
   d="m 4477.627,2355.798 c -13.884,-0.624 -28.404,4.325 -39.986,11.82 -4.659,3.012 -8.974,6.66 -13.714,9.506 -3.485,2.09 -7.111,4.356 -10.792,6.072 -1.791,0.838 -3.557,1.349 -5.208,2.057 -1.798,0.77 -3.471,1.759 -4.932,3.516 -0.353,0.423 -0.295,1.054 0.127,1.406 0.423,0.353 1.054,0.295 1.407,-0.127 1.238,-1.486 2.664,-2.309 4.186,-2.959 1.67,-0.715 3.454,-1.236 5.266,-2.083 3.744,-1.745 7.43,-4.044 10.975,-6.17 4.762,-2.856 9.094,-6.516 13.771,-9.54 11.247,-7.279 25.332,-12.108 38.811,-11.503 0.552,0.026 1.02,-0.401 1.044,-0.95 0.022,-0.553 -0.405,-1.019 -0.955,-1.045 z"
   id="path79" />
				<path
   style="clip-rule:evenodd;fill:#c2187a;fill-rule:evenodd"
   d="m 4384.596,2384.509 c 0.439,0.106 0.766,0.502 0.766,0.972 0,0.466 -0.228,0.756 -0.598,0.924 -0.137,0.06 -0.441,0.17 -0.866,-0.01 -0.523,-0.216 -3.192,-2.172 -3.876,-2.858 -2.199,-2.196 -4.654,-3.698 -7.152,-5.515 -4.022,-2.926 -7.985,-6.374 -12.25,-8.505 -3.173,-1.586 -7.027,-3.394 -9.9,-5.547 -0.607,-0.456 -1.38,-0.718 -2.158,-0.979 -0.95,-0.319 -1.91,-0.629 -2.714,-1.111 -5.952,-3.571 -12.852,-5.94 -19.767,-6.804 -8.146,-1.02 -18.398,2.237 -25.91,8.031 -4.949,3.813 -8.717,8.736 -9.831,14.304 -0.54,2.695 -0.077,5.777 0.18,8.467 0.55,5.77 2.292,9.775 4.925,12.463 3.955,4.042 9.857,5.081 16.387,4.862 11.393,-0.379 24.677,-4.603 33.677,-4.848 9.579,-0.257 20.09,-0.578 29.599,1.006 1.699,0.283 3.821,1.006 5.947,1.567 1.93,0.506 3.862,0.898 5.431,0.547 0.54,-0.12 1.073,0.219 1.193,0.756 0.12,0.537 -0.218,1.073 -0.756,1.193 -1.491,0.333 -3.262,0.154 -5.083,-0.25 -2.481,-0.55 -5.066,-1.512 -7.061,-1.843 -9.386,-1.565 -19.762,-1.234 -29.218,-0.979 -8.995,0.242 -22.274,4.469 -33.665,4.848 -7.142,0.238 -13.553,-1.042 -17.88,-5.462 -2.892,-2.957 -4.881,-7.33 -5.484,-13.67 -0.276,-2.873 -0.727,-6.17 -0.151,-9.048 1.203,-6.017 5.223,-11.371 10.57,-15.494 7.935,-6.117 18.775,-9.506 27.377,-8.431 7.188,0.898 14.359,3.363 20.546,7.073 0.686,0.413 1.514,0.66 2.326,0.931 0.984,0.331 1.946,0.698 2.716,1.274 2.782,2.086 6.523,3.823 9.595,5.359 4.359,2.179 8.422,5.686 12.533,8.676 2.583,1.879 5.114,3.446 7.387,5.719 0.522,0.52 2.757,2.092 3.165,2.377 z m -0.852,0.19 c -0.228,0.158 -0.365,0.394 -0.379,0.722 0.016,-0.293 0.16,-0.552 0.379,-0.722 z"
   id="path80" />
				<path
   style="clip-rule:evenodd;fill:#c2187a;fill-rule:evenodd"
   d="m 4385.584,2393.149 c -14.909,-4.762 -30.523,-9.324 -46.43,-10.318 -11.768,-0.734 -23.268,3.137 -34.923,3.137 -2.632,0 -4.675,-1.642 -6.218,-3.871 -2.489,-3.595 -3.688,-8.739 -3.688,-11.983 0,-0.55 -0.449,-0.999 -0.999,-0.999 -0.552,0 -0.999,0.449 -0.999,0.999 0,3.552 1.32,9.182 4.044,13.121 1.935,2.791 4.565,4.73 7.86,4.73 11.614,0 23.071,-3.874 34.798,-3.142 15.744,0.984 31.193,5.515 45.948,10.229 0.526,0.168 1.087,-0.123 1.255,-0.648 0.168,-0.523 -0.122,-1.087 -0.648,-1.255 z"
   id="path81" />
				<path
   style="clip-rule:evenodd;fill:#c2187a;fill-rule:evenodd"
   d="m 4297.572,2380.717 c 0.425,-1.342 1.582,-2.534 2.961,-3.605 2.28,-1.766 5.198,-3.163 7.118,-4.121 13.385,-6.694 21.116,-2.062 33.691,3.329 4.382,1.877 8.909,3.192 13.293,4.656 3.264,1.087 10.575,3.113 14.662,5.741 0.792,0.511 1.457,1.039 1.917,1.594 0.35,0.422 0.583,0.847 0.583,1.301 0,0.55 0.446,0.998 0.999,0.998 0.549,0 0.999,-0.449 0.999,-0.998 0,-1.601 -1.287,-3.202 -3.418,-4.574 -4.217,-2.712 -11.743,-4.833 -15.11,-5.957 -4.332,-1.445 -8.806,-2.738 -13.14,-4.596 -13.193,-5.654 -21.324,-10.303 -35.369,-3.281 -2.011,1.006 -5.062,2.481 -7.45,4.332 -1.73,1.342 -3.105,2.894 -3.641,4.579 -0.166,0.526 0.125,1.087 0.65,1.253 0.528,0.168 1.089,-0.125 1.255,-0.651 z"
   id="path82" />
				<path
   style="clip-rule:evenodd;fill:#c2187a;fill-rule:evenodd"
   d="m 4389.631,2405.43 c -0.103,0.036 -1.214,0.422 -2.35,0.895 -5.705,2.385 -18.59,8.398 -19.586,8.911 -20.415,10.536 -36.367,24.785 -53.491,40.008 -3.907,3.473 -7.783,7.147 -11.328,10.999 -0.885,0.962 -1.704,2.304 -2.597,3.573 -1.003,1.428 -2.103,2.762 -3.405,3.545 -0.295,0.177 -0.636,0.235 -0.994,0.175 -0.468,-0.077 -0.979,-0.415 -1.219,-0.655 -1.783,-1.786 -3.007,-4.049 -4.913,-5.743 -0.47,-0.417 -1.034,-0.71 -1.586,-1.015 -0.698,-0.386 -1.377,-0.79 -1.927,-1.337 -0.177,-0.18 -0.288,-0.415 -0.437,-0.621 -0.202,-0.283 -0.463,-0.531 -0.6,-0.847 -0.103,-0.24 -0.158,-0.55 -0.125,-0.924 0.043,-0.497 0.269,-1.195 0.655,-2.016 1.879,-3.991 7.73,-11.609 8.703,-12.792 15.523,-18.897 37.073,-32.155 59.546,-41.266 2.169,-0.881 6.341,-3.142 10.075,-4.884 2.625,-1.226 5.054,-2.186 6.506,-2.335 0.547,-0.058 1.039,0.341 1.097,0.89 0.055,0.547 -0.343,1.039 -0.89,1.094 -1.313,0.137 -3.495,1.051 -5.868,2.16 -3.768,1.759 -7.98,4.037 -10.171,4.925 -22.166,8.986 -43.44,22.042 -58.752,40.683 -0.828,1.008 -5.29,6.799 -7.618,10.829 -0.562,0.972 -0.996,1.831 -1.2,2.482 -0.048,0.146 -0.079,0.35 -0.091,0.427 0.091,0.156 0.252,0.266 0.357,0.413 0.084,0.117 0.123,0.269 0.226,0.37 0.417,0.42 0.948,0.708 1.48,1.003 0.679,0.377 1.366,0.756 1.946,1.27 1.935,1.721 3.188,4.01 5,5.825 0.01,0 0.012,0.012 0.021,0.017 0.972,-0.667 1.781,-1.723 2.549,-2.818 0.945,-1.346 1.821,-2.758 2.762,-3.778 3.588,-3.902 7.515,-7.625 11.472,-11.141 17.251,-15.336 33.333,-29.674 53.901,-40.289 1.001,-0.518 13.983,-6.576 19.733,-8.978 1.037,-0.434 1.848,-0.751 2.321,-0.902 0.343,-0.111 0.588,-0.144 0.708,-0.144 0.552,0 0.999,0.446 0.999,0.998 0,0.52 -0.4,0.95 -0.909,0.993 z"
   id="path83" />
				<path
   style="clip-rule:evenodd;fill:#c2187a;fill-rule:evenodd"
   d="m 4463.93,2487.832 c -0.055,0.065 -0.425,0.492 -0.722,0.859 -0.658,0.814 -1.505,1.834 -2.081,2.278 -0.693,0.533 -1.332,0.439 -1.673,0.213 -1.022,-0.684 -1.867,-2.016 -2.513,-3.569 -0.854,-2.052 -1.406,-4.488 -1.851,-5.883 -2.345,-7.37 -4.238,-15.391 -7.706,-22.325 -5.187,-10.375 -11.021,-20.386 -18.848,-29.021 -3.259,-3.598 -7.349,-6.25 -10.716,-9.722 -2.645,-2.729 -7.517,-8.083 -12.435,-12.135 -3.132,-2.58 -6.257,-4.654 -8.808,-5.016 -0.545,-0.079 -0.927,-0.586 -0.848,-1.131 0.077,-0.545 0.583,-0.924 1.128,-0.847 2.822,0.401 6.333,2.599 9.796,5.453 4.983,4.104 9.919,9.521 12.598,12.283 3.384,3.49 7.488,6.158 10.764,9.773 7.949,8.772 13.884,18.931 19.152,29.467 3.514,7.027 5.448,15.146 7.824,22.615 0.432,1.354 0.96,3.725 1.791,5.719 0.381,0.914 0.809,1.757 1.351,2.313 0.194,-0.187 0.449,-0.439 0.641,-0.66 0.821,-0.95 1.692,-2.073 1.949,-2.261 1.272,-0.924 2.789,-1.142 4.339,-1.258 1.231,-0.094 2.486,-0.106 3.566,-0.646 0.495,-0.245 1.094,-0.046 1.342,0.447 0.245,0.494 0.045,1.094 -0.449,1.339 -1.308,0.655 -2.818,0.739 -4.311,0.85 -1.163,0.089 -2.322,0.183 -3.28,0.865 z"
   id="path84" />
				<path
   style="clip-rule:evenodd;fill:#c2187a;fill-rule:evenodd"
   d="m 4413.259,2401.943 c 1.181,0.094 2.921,1.109 4.887,2.481 4.963,3.466 11.09,9.363 13.051,11.436 13.735,14.546 25.145,32.239 31.836,51.194 0.838,2.376 3.579,8.338 5.146,12.869 0.626,1.807 1.075,3.365 1.075,4.313 0,0.552 0.449,0.998 0.999,0.998 0.552,0 0.998,-0.446 0.998,-0.998 0,-1.09 -0.465,-2.89 -1.183,-4.968 -1.57,-4.531 -4.313,-10.5 -5.15,-12.876 -6.782,-19.217 -18.343,-37.157 -32.271,-51.902 -2.004,-2.124 -8.277,-8.155 -13.356,-11.702 -2.337,-1.635 -4.466,-2.724 -5.873,-2.837 -0.547,-0.043 -1.03,0.367 -1.073,0.917 -0.044,0.549 0.367,1.029 0.914,1.075 z"
   id="path85" />
			</g>
		</g>
</svg>
